<svg width="21" height="21" viewBox="0 0 21 21" fill="none" xmlns="http://www.w3.org/2000/svg">
<g id="Group 48099460">
<path id="Vector" d="M10.4999 20.1H10.5C15.7949 20.1 20.1 15.7931 20.1 10.4997C20.1 10.2583 20.0041 10.0268 19.8334 9.85606C19.6627 9.68535 19.4312 9.58945 19.1897 9.58945H11.4103V1.81028C11.4103 1.56886 11.3144 1.33733 11.1437 1.16662C10.9729 0.995905 10.7414 0.9 10.5 0.9C5.20509 0.9 0.900546 5.20632 0.9 10.4997L0.9 10.4998C0.90188 13.0454 1.9139 15.4861 3.71383 17.2861C5.51376 19.0861 7.95444 20.0981 10.4999 20.1ZM5.00056 15.9982C3.54196 14.5393 2.72193 12.5611 2.72052 10.498C2.72108 6.51631 5.72768 3.2235 9.58974 2.77157V10.4997C9.58974 10.7411 9.68564 10.9727 9.85635 11.1434C10.0271 11.3141 10.2586 11.41 10.5 11.41H18.2263C17.7744 15.2727 14.4817 18.2794 10.5001 18.2794C8.43711 18.2776 6.45916 17.4571 5.00056 15.9982Z" fill="#7CE7FF" stroke="#7CE7FF" stroke-width="0.2"/>
<path id="Vector_2" d="M19.472 8.00714H13.6703C13.4906 8.00714 13.3182 7.93574 13.1911 7.80864M19.472 8.00714L13.1911 7.80864M19.472 8.00714C19.6517 8.00714 19.8241 7.93574 19.9512 7.80864C20.0783 7.68153 20.1497 7.50915 20.1497 7.3294C20.1497 3.75677 17.2433 0.85 13.6703 0.85C13.4906 0.85 13.3182 0.921405 13.1911 1.04851C13.064 1.17561 12.9926 1.34799 12.9926 1.52774V7.3294C12.9926 7.50915 13.064 7.68153 13.1911 7.80864M19.472 8.00714L13.1911 7.80864M17.2919 3.70795C18.0881 4.50411 18.5994 5.53881 18.7494 6.65166H14.3481V2.25065C15.4609 2.40062 16.4957 2.91179 17.2919 3.70795Z" fill="#7CE7FF" stroke="#7CE7FF" stroke-width="0.3"/>
</g>
</svg>
