<svg width="32" height="32" viewBox="0 0 32 32" fill="none" xmlns="http://www.w3.org/2000/svg">
<g id="Glyph">
<path id="XMLID_273_" d="M27.5256 18.036L26.9996 17.732C26.3736 17.371 25.9996 16.723 25.9996 16C25.9996 15.277 26.3736 14.629 26.9996 14.268L27.5256 13.964C28.9616 13.134 29.4526 11.302 28.6236 9.866L27.6236 8.134C26.7966 6.701 24.9576 6.209 23.5256 7.036L22.9996 7.339C22.3736 7.701 21.6246 7.701 20.9996 7.339C20.3736 6.977 19.9996 6.33 19.9996 5.607V5C19.9996 3.346 18.6536 2 16.9996 2H14.9996C13.3456 2 11.9996 3.346 11.9996 5V5.608C11.9996 6.331 11.6256 6.978 10.9996 7.34C10.3736 7.701 9.62562 7.702 8.99962 7.34L8.47362 7.036C7.04162 6.209 5.20262 6.701 4.37462 8.134L3.37462 9.866C2.54562 11.302 3.03662 13.135 4.47262 13.964L4.99962 14.268C5.62562 14.629 5.99962 15.277 5.99962 16C5.99962 16.723 5.62562 17.371 4.99962 17.732L4.47362 18.036C3.03762 18.865 2.54662 20.698 3.37562 22.134L4.37562 23.866C5.20362 25.299 7.04262 25.791 8.47362 24.964L8.99962 24.661C9.62562 24.298 10.3736 24.3 10.9996 24.661C11.6256 25.023 11.9996 25.67 11.9996 26.393V27C11.9996 28.654 13.3456 30 14.9996 30H16.9996C18.6536 30 19.9996 28.654 19.9996 27V26.392C19.9996 25.669 20.3736 25.022 20.9996 24.66C21.6246 24.299 22.3736 24.298 22.9996 24.66L23.5256 24.964C24.9576 25.79 26.7966 25.298 27.6236 23.866L28.6236 22.134C29.4526 20.698 28.9616 18.865 27.5256 18.036ZM15.9996 21C13.2426 21 10.9996 18.757 10.9996 16C10.9996 13.243 13.2426 11 15.9996 11C18.7566 11 20.9996 13.243 20.9996 16C20.9996 18.757 18.7566 21 15.9996 21Z" fill="#7CE7FF"/>
</g>
</svg>
