<svg width="130" height="11" viewBox="0 0 130 11" fill="none" xmlns="http://www.w3.org/2000/svg">
<g id="Logo">
<path id="Vector" d="M81.9257 0.271973H80.7102C80.5315 0.271973 80.3867 0.42726 80.3867 0.618816V10.0782C80.3867 10.2697 80.5315 10.425 80.7102 10.425H81.9257C82.1044 10.425 82.2492 10.2697 82.2492 10.0782V0.618816C82.2492 0.42726 82.1044 0.271973 81.9257 0.271973Z" fill="#F5F2F0"/>
<path id="Vector_2" d="M12.8673 1.89421V0.643474C12.8673 0.454287 12.7236 0.296631 12.5439 0.296631H4.06801C2.18594 0.296631 0 2.51432 0 5.36965C0 8.22497 1.78731 10.4252 4.06801 10.4252H12.5471C12.7236 10.4252 12.8706 10.271 12.8706 10.0783V8.82757C12.8706 8.63838 12.7268 8.48073 12.5471 8.48073H4.71171C3.4668 8.48073 1.8886 7.01277 1.8886 5.36615C1.8886 3.71952 3.4668 2.23755 4.71171 2.23755H12.5439C12.7203 2.23755 12.8673 2.0834 12.8673 1.89071V1.89421Z" fill="#F5F2F0"/>
<path id="Vector_3" d="M28.9861 10.0818V0.643474C28.9861 0.454287 28.8423 0.296631 28.6626 0.296631H27.4732C27.2968 0.296631 27.1497 0.450783 27.1497 0.643474V4.39218H17.8995V0.643474C17.8995 0.454287 17.7557 0.296631 17.576 0.296631H16.3801C16.2037 0.296631 16.0566 0.450783 16.0566 0.643474V10.0818C16.0566 10.271 16.2004 10.4287 16.3801 10.4287H17.576C17.7525 10.4287 17.8995 10.2745 17.8995 10.0818V6.3331H27.1497V10.0818C27.1497 10.271 27.2935 10.4287 27.4732 10.4287H28.6626C28.839 10.4287 28.9861 10.2745 28.9861 10.0818Z" fill="#F5F2F0"/>
<path id="Vector_4" d="M77.1748 4.10131C77.1748 1.93266 75.1032 0.300049 73.7603 0.300049H64.595C64.4185 0.300049 64.2715 0.454201 64.2715 0.646892V1.91164C64.2715 2.10083 64.4153 2.25849 64.595 2.25849H73.7406C74.4628 2.25849 75.3417 3.10983 75.3417 4.10481C75.3417 5.0998 74.4628 5.95114 73.7406 5.95114H64.595C64.4185 5.95114 64.2715 6.10529 64.2715 6.29798V10.0887C64.2715 10.2779 64.4153 10.4356 64.595 10.4356H65.7909C65.9673 10.4356 66.1143 10.2814 66.1143 10.0887V8.04621C66.1143 7.96914 66.1732 7.90958 66.2418 7.90958H73.7603C75.1032 7.90958 77.1748 6.27696 77.1748 4.10832V4.10131Z" fill="#F5F2F0"/>
<path id="Vector_5" d="M60.8889 10.0715V0.345903C60.8889 0.0726322 60.6079 -0.0920307 60.3922 0.0551148L54.514 4.07009C54.4716 4.09811 54.4193 4.09811 54.3768 4.07009L48.4986 0.0551148C48.283 -0.0920307 48.002 0.0726322 48.002 0.345903V10.0715C48.002 10.2607 48.1457 10.4184 48.3254 10.4184H49.4854C49.6618 10.4184 49.8089 10.2642 49.8089 10.0715V3.3799C49.8089 3.2713 49.9232 3.20473 50.0082 3.26429L54.2755 6.27026C54.3801 6.34384 54.5173 6.34734 54.6251 6.27026L59.0624 3.26079C59.1473 3.20123 59.2584 3.26779 59.2584 3.3764V10.0715C59.2584 10.2607 59.4022 10.4184 59.5819 10.4184H60.5687C60.7451 10.4184 60.8922 10.2642 60.8922 10.0715H60.8889Z" fill="#F5F2F0"/>
<path id="Vector_6" d="M38.2137 0.149401L31.7278 9.8575C31.571 10.0922 31.7213 10.4286 31.9859 10.4286H33.2831C33.489 10.4286 33.6818 10.3235 33.8059 10.1413L38.5046 3.28851C38.5568 3.21143 38.6614 3.21493 38.7137 3.29201L41.9158 8.41758C41.9746 8.51217 41.9158 8.6418 41.8112 8.6418H38.2922C38.1059 8.6418 37.9327 8.7399 37.8217 8.90806L37.1976 9.8575C37.0407 10.0922 37.1943 10.4251 37.459 10.4251H44.9676C45.2323 10.4251 45.3826 10.0887 45.2258 9.854L38.7333 0.149401C38.6058 -0.0432898 38.3444 -0.0432898 38.217 0.149401H38.2137Z" fill="#F5F2F0"/>
<path id="Vector_7" d="M94.9719 0.296631H88.8355C87.3227 0.296631 85.4766 2.16047 85.4766 4.33963V6.39967C85.4766 8.63138 87.3162 10.4252 88.8355 10.4252H94.9719C96.4945 10.4252 98.3308 8.62787 98.3308 6.39967V4.33963C98.3308 2.16398 96.4814 0.296631 94.9719 0.296631ZM96.4912 6.39967C96.4912 7.55231 95.2104 8.48423 94.3739 8.48423L89.4302 8.43518C88.597 8.43518 87.3162 7.49976 87.3162 6.35062V4.29058C87.3162 3.13794 88.597 2.20602 89.4335 2.20602L94.3739 2.25507C95.2071 2.25507 96.488 3.19049 96.488 4.33963V6.39967H96.4912Z" fill="#F5F2F0"/>
<path id="Vector_8" d="M113.81 0.265117H112.641C112.464 0.265117 112.317 0.41927 112.317 0.61196L112.327 6.96725C112.327 7.07235 112.219 7.13892 112.134 7.08637L102.044 0.296649C101.828 0.163517 101.561 0.331683 101.561 0.594443V10.0818C101.561 10.271 101.704 10.4287 101.884 10.4287H103.093C103.269 10.4287 103.416 10.2745 103.416 10.0818V3.77209C103.416 3.66698 103.524 3.60042 103.609 3.65297L113.657 10.3551C113.872 10.4917 114.144 10.3236 114.144 10.0573L114.134 0.608457C114.134 0.41927 113.99 0.265117 113.81 0.265117Z" fill="#F5F2F0"/>
<path id="Vector_9" d="M129.997 7.41558C129.997 5.74793 129.092 4.39208 127.978 4.39208H119.806C119.378 4.39208 119.031 3.91211 119.031 3.32353C119.031 2.73494 119.378 2.25497 119.806 2.25497H129.278C129.454 2.25497 129.601 2.10082 129.601 1.90813V0.65739C129.601 0.468203 129.458 0.310547 129.278 0.310547H119.806C118.688 0.310547 117.143 1.35808 117.143 3.32002C117.143 6.03521 119.005 6.3295 119.806 6.3295H127.389C127.824 6.3295 128.164 6.80597 128.164 7.41558C128.164 8.02518 127.817 8.48413 127.389 8.48413H117.466C117.29 8.48413 117.143 8.63828 117.143 8.83097V10.0817C117.143 10.2709 117.286 10.4286 117.466 10.4286H127.981C129.095 10.4286 130 9.07972 130 7.41908L129.997 7.41558Z" fill="#F5F2F0"/>
</g>
</svg>
