<svg width="13" height="14" viewBox="0 0 13 14" fill="none" xmlns="http://www.w3.org/2000/svg">
<path id="search" d="M11.8026 13.6706L8.80921 10.3362C8.38158 10.6783 7.8898 10.9491 7.33388 11.1487C6.77796 11.3482 6.1864 11.448 5.55921 11.448C4.00548 11.448 2.69066 10.91 1.61474 9.83413C0.538246 8.75764 0 7.44253 0 5.8888C0 4.33507 0.538246 3.01996 1.61474 1.94347C2.69066 0.86755 4.00548 0.32959 5.55921 0.32959C7.11294 0.32959 8.42805 0.86755 9.50454 1.94347C10.5805 3.01996 11.1184 4.33507 11.1184 5.8888C11.1184 6.51599 11.0186 7.10755 10.8191 7.66347C10.6195 8.21939 10.3487 8.71117 10.0066 9.1388L13 12.4733L11.8026 13.6706ZM5.55921 9.73748C6.62829 9.73748 7.53715 9.36345 8.28579 8.61538C9.03386 7.86674 9.40789 6.95788 9.40789 5.8888C9.40789 4.81972 9.03386 3.91086 8.28579 3.16222C7.53715 2.41415 6.62829 2.04012 5.55921 2.04012C4.49013 2.04012 3.58127 2.41415 2.83263 3.16222C2.08456 3.91086 1.71053 4.81972 1.71053 5.8888C1.71053 6.95788 2.08456 7.86674 2.83263 8.61538C3.58127 9.36345 4.49013 9.73748 5.55921 9.73748Z" fill="#9ADBFF"/>
</svg>
