<svg width="20" height="24" viewBox="0 0 20 24" fill="none" xmlns="http://www.w3.org/2000/svg">
<g id="Vector">
<path d="M2.69231 24H1.15385C0.847827 24 0.554342 23.8736 0.337954 23.6485C0.121566 23.4235 0 23.1183 0 22.8V15.6C0 15.2817 0.121566 14.9765 0.337954 14.7515C0.554342 14.5264 0.847827 14.4 1.15385 14.4H2.69231C2.99833 14.4 3.29181 14.5264 3.5082 14.7515C3.72459 14.9765 3.84615 15.2817 3.84615 15.6V22.8C3.84615 23.1183 3.72459 23.4235 3.5082 23.6485C3.29181 23.8736 2.99833 24 2.69231 24Z" fill="#7CE7FF"/>
<path d="M13.4615 24H11.9231C11.6171 24 11.3236 23.8736 11.1072 23.6485C10.8908 23.4235 10.7692 23.1183 10.7692 22.8V10.8C10.7692 10.4817 10.8908 10.1765 11.1072 9.95147C11.3236 9.72643 11.6171 9.6 11.9231 9.6H13.4615C13.7676 9.6 14.061 9.72643 14.2774 9.95147C14.4938 10.1765 14.6154 10.4817 14.6154 10.8V22.8C14.6154 23.1183 14.4938 23.4235 14.2774 23.6485C14.061 23.8736 13.7676 24 13.4615 24Z" fill="#7CE7FF"/>
<path d="M18.8462 24H17.3077C17.0017 24 16.7082 23.8736 16.4918 23.6485C16.2754 23.4235 16.1538 23.1183 16.1538 22.8V5.2C16.1538 4.88174 16.2754 4.57652 16.4918 4.35147C16.7082 4.12643 17.0017 4 17.3077 4H18.8462C19.1522 4 19.4457 4.12643 19.662 4.35147C19.8784 4.57652 20 4.88174 20 5.2V22.8C20 23.1183 19.8784 23.4235 19.662 23.6485C19.4457 23.8736 19.1522 24 18.8462 24Z" fill="#7CE7FF"/>
<path d="M8.07692 24H6.53846C6.23244 24 5.93896 23.8736 5.72257 23.6485C5.50618 23.4235 5.38462 23.1183 5.38462 22.8V1.2C5.38462 0.88174 5.50618 0.576516 5.72257 0.351472C5.93896 0.126428 6.23244 0 6.53846 0H8.07692C8.38294 0 8.67643 0.126428 8.89282 0.351472C9.1092 0.576516 9.23077 0.88174 9.23077 1.2V22.8C9.23077 23.1183 9.1092 23.4235 8.89282 23.6485C8.67643 23.8736 8.38294 24 8.07692 24Z" fill="#7CE7FF"/>
</g>
</svg>
