<svg width="16" height="17" viewBox="0 0 16 17" fill="none" xmlns="http://www.w3.org/2000/svg">
<g id="Group">
<path id="Vector" d="M12.978 3.10166C9.93511 0.171094 5.08704 0.256783 2.15069 3.29018C-0.716896 6.24816 -0.716896 10.9405 2.15069 13.8985C5.19363 16.8291 10.0417 16.7434 12.978 13.71C15.8456 10.752 15.8456 6.06308 12.978 3.10166ZM3.23033 4.17792C4.99421 2.41615 7.65551 1.90201 9.95577 2.87201L9.73227 3.10166L10.2755 3.64322L10.6744 3.23876C10.8979 3.37244 11.111 3.5164 11.3173 3.67406L2.72491 12.2395C2.56674 12.0339 2.42233 11.818 2.28823 11.5986L2.69397 11.201L2.15069 10.6594L1.92719 10.8822C0.950695 8.59262 1.46646 5.93968 3.23033 4.17792ZM11.8984 12.8222C10.1345 14.584 7.47327 15.0981 5.17301 14.1281L5.39651 13.8985L4.85323 13.3569L4.45441 13.7614C4.23091 13.6277 4.01774 13.4838 3.81144 13.3261L12.4039 4.7606C12.562 4.96626 12.7065 5.18219 12.8405 5.40156L12.4348 5.79915L12.978 6.34071L13.2015 6.11792C14.178 8.40753 13.6623 11.0605 11.8984 12.8222ZM7.0194 11.2044L7.56265 11.7391L6.483 12.8222L5.93976 12.3184L7.0194 11.2044ZM9.18902 9.04163L9.73227 9.57633L8.64573 10.6594L8.10937 10.1179L9.18902 9.04163ZM11.393 6.88226L11.9363 7.42382L10.8119 8.50007L10.2755 7.95852L11.393 6.88226ZM8.10937 5.79915L7.56609 5.26445L8.64573 4.18134L9.18902 4.7229L8.10937 5.79915ZM5.93976 7.95852L5.39651 7.42382L6.483 6.34071L7.0194 6.88226L5.93976 7.95852ZM3.77362 10.1179L3.23033 9.57633L4.31686 8.50007L4.85323 9.04163L3.77362 10.1179Z" fill="#9ADBFF"/>
</g>
</svg>
