<svg width="24" height="24" viewBox="0 0 24 24" fill="none" xmlns="http://www.w3.org/2000/svg">
<g id="Icons" clip-path="url(#clip0_40_1477)">
<path id="Vector" d="M12 24C14.3734 24 16.6934 23.2962 18.6668 21.9776C20.6402 20.6591 22.1783 18.7849 23.0865 16.5922C23.9948 14.3995 24.2324 11.9867 23.7694 9.65892C23.3064 7.33115 22.1635 5.19295 20.4853 3.51472C18.807 1.83649 16.6689 0.693607 14.3411 0.230584C12.0133 -0.232438 9.60051 0.00520008 7.4078 0.913453C5.21509 1.8217 3.34094 3.35977 2.02236 5.33316C0.703786 7.30655 -6.50789e-07 9.62663 -8.58276e-07 12C-1.13651e-06 15.1826 1.26428 18.2348 3.51472 20.4853C5.76515 22.7357 8.8174 24 12 24ZM6.86509 13.4105C7.06966 13.206 7.34709 13.0911 7.63636 13.0911C7.92563 13.0911 8.20306 13.206 8.40763 13.4105L10.9091 15.912L10.9091 5.45455C10.9091 5.16522 11.024 4.88775 11.2286 4.68316C11.4332 4.47858 11.7107 4.36364 12 4.36364C12.2893 4.36364 12.5668 4.47858 12.7714 4.68316C12.976 4.88775 13.0909 5.16522 13.0909 5.45455L13.0909 15.912L15.5924 13.4105C15.693 13.3064 15.8134 13.2232 15.9465 13.1661C16.0796 13.1089 16.2227 13.0788 16.3676 13.0775C16.5124 13.0763 16.6561 13.1039 16.7901 13.1587C16.9242 13.2136 17.046 13.2946 17.1484 13.397C17.2509 13.4995 17.3319 13.6213 17.3867 13.7553C17.4416 13.8894 17.4692 14.033 17.4679 14.1779C17.4666 14.3227 17.4366 14.4659 17.3794 14.599C17.3222 14.7321 17.2391 14.8525 17.1349 14.9531L12.7713 19.3167C12.5667 19.5212 12.2893 19.6361 12 19.6361C11.7107 19.6361 11.4333 19.5212 11.2287 19.3167L6.86509 14.9531C6.66057 14.7485 6.54569 14.4711 6.54569 14.1818C6.54569 13.8925 6.66057 13.6151 6.86509 13.4105Z" fill="#7CE7FF"/>
</g>
<defs>
<clipPath id="clip0_40_1477">
<rect width="24" height="24" fill="white"/>
</clipPath>
</defs>
</svg>
