<svg xmlns="http://www.w3.org/2000/svg" width="165" height="165" viewBox="0 0 165 165" fill="none">
  <path d="M82.5 165C37.0082 165 0 127.992 0 82.5C0 76.9977 4.4663 72.5314 9.96861 72.5314C15.4709 72.5314 19.9372 76.9977 19.9372 82.5C19.9372 116.999 48.0013 145.063 82.5 145.063C116.999 145.063 145.063 116.999 145.063 82.5C145.063 48.0013 116.999 19.9372 82.5 19.9372C76.9977 19.9372 72.5314 15.4709 72.5314 9.96861C72.5314 4.4663 76.9977 0 82.5 0C127.992 0 165 37.0082 165 82.5C165 127.992 127.992 165 82.5 165Z" fill="url(#paint0_linear_130_326)"/>
  <defs>
    <linearGradient id="paint0_linear_130_326" x1="147.954" y1="13.3067" x2="26.1937" y2="165.617" gradientUnits="userSpaceOnUse">
      <stop stop-color="#9ADBFF"/>
      <stop offset="1" stop-color="#2E3274"/>
    </linearGradient>
  </defs>
</svg>