<svg width="12" height="12" viewBox="0 0 12 12" fill="none" xmlns="http://www.w3.org/2000/svg">
<g id="Frame">
<path id="Vector" d="M6.57667 8.73042L10.3268 4.23024C10.4534 4.07725 10.5141 3.88036 10.4958 3.68267C10.4775 3.48498 10.3816 3.3026 10.2291 3.17548C10.0766 3.04836 9.8799 2.98686 9.68215 3.00443C9.48439 3.02201 9.30165 3.11724 9.17396 3.26926L6.00021 7.07801L2.82646 3.26926C2.69894 3.11665 2.51606 3.0209 2.318 3.00303C2.11993 2.98517 1.92287 3.04666 1.7701 3.174C1.61734 3.30133 1.52137 3.48409 1.50327 3.68214C1.48517 3.88019 1.54642 4.07732 1.67357 4.23024L5.4238 8.73042C5.49429 8.81481 5.58246 8.88268 5.68206 8.92926C5.78166 8.97583 5.89028 8.99997 6.00023 8.99997C6.11019 8.99997 6.2188 8.97583 6.31841 8.92926C6.41801 8.88268 6.50617 8.81481 6.57667 8.73042Z" fill="#7CE7FF"/>
</g>
</svg>
