<svg width="31" height="30" viewBox="0 0 31 30" fill="none" xmlns="http://www.w3.org/2000/svg">
<g id="Frame" clip-path="url(#clip0_40_34)">
<g id="Layer 2">
<g id="Interface-Solid">
<g id="interface-solid-multimedia-play-button-1">
<g id="Group 48099479">
<path id="Vector" d="M15.8672 0C12.9005 0 10.0004 0.879735 7.53364 2.52796C5.0669 4.17618 3.14432 6.51886 2.009 9.25975C0.873687 12.0006 0.576637 15.0166 1.15542 17.9264C1.73419 20.8361 3.1628 23.5088 5.26059 25.6066C7.35838 27.7044 10.0311 29.133 12.9408 29.7118C15.8506 30.2906 18.8666 29.9935 21.6074 28.8582C24.3483 27.7229 26.691 25.8003 28.3392 23.3336C29.9875 20.8668 30.8672 17.9667 30.8672 15C30.8629 11.0231 29.2811 7.2103 26.469 4.3982C23.6569 1.58609 19.8441 0.00434362 15.8672 0ZM15.8672 27.5C13.3949 27.5 10.9782 26.7669 8.92257 25.3934C6.86695 24.0199 5.2648 22.0676 4.3187 19.7835C3.3726 17.4995 3.12506 14.9861 3.60738 12.5614C4.08969 10.1366 5.2802 7.90932 7.02836 6.16117C8.77652 4.41301 11.0038 3.2225 13.4286 2.74018C15.8533 2.25787 18.3667 2.50541 20.6507 3.45151C22.9348 4.3976 24.887 5.99976 26.2606 8.05537C27.6341 10.111 28.3672 12.5277 28.3672 15C28.3635 18.3141 27.0453 21.4913 24.7019 23.8347C22.3585 26.1781 19.1813 27.4963 15.8672 27.5Z" fill="#9ADBFF"/>
<path id="Vector_2" d="M20.834 13.3596L15.1875 9.41818C14.8876 9.20904 14.5362 9.0861 14.1713 9.0627C13.8064 9.0393 13.4421 9.11634 13.118 9.28546C12.7939 9.45457 12.5223 9.7093 12.3327 10.0219C12.1432 10.3346 12.043 10.6932 12.043 11.0588V18.9416C12.0427 19.3073 12.1428 19.6661 12.3322 19.9789C12.5217 20.2918 12.7933 20.5466 13.1176 20.7158C13.4418 20.8849 13.8063 20.9619 14.1712 20.9384C14.5362 20.9148 14.8877 20.7916 15.1875 20.5822L20.834 16.6408V16.6398C21.0981 16.4555 21.3138 16.2101 21.4627 15.9246C21.6117 15.639 21.6894 15.3217 21.6894 14.9996C21.6894 14.6776 21.6117 14.3603 21.4627 14.0747C21.3138 13.7892 21.0981 13.5439 20.834 13.3596Z" fill="#9ADBFF"/>
</g>
</g>
</g>
</g>
</g>
<defs>
<clipPath id="clip0_40_34">
<rect width="30" height="30" fill="white" transform="translate(0.867188)"/>
</clipPath>
</defs>
</svg>
