<svg width="21" height="21" viewBox="0 0 21 21" fill="none" xmlns="http://www.w3.org/2000/svg">
<path id="Vector" d="M11.7878 1.16818C11.6712 1.27112 10.6092 2.25336 9.36329 3.73411C8.68266 2.83668 7.92708 1.99471 7.10384 1.21701L7.10385 1.217L7.10227 1.21555C6.87849 1.01013 6.58358 0.896295 6.27778 0.896295C5.97197 0.896295 5.67706 1.01013 5.45328 1.21555L5.45311 1.21536L5.44699 1.22167C5.43792 1.23104 5.41727 1.25101 5.38628 1.28097C5.12044 1.53805 4.09378 2.53086 3.08795 3.87642C1.96883 5.37354 0.85 7.3395 0.85 9.24596C0.85 10.6535 1.42275 12.0027 2.44104 12.9969C3.21784 13.7553 4.20536 14.2598 5.26869 14.4564C5.58568 15.7858 6.27766 17.0142 7.28159 17.9944C8.69567 19.375 10.6128 20.15 12.6111 20.15C14.6094 20.15 16.5266 19.375 17.9406 17.9944C19.3548 16.6137 20.15 14.7403 20.15 12.786C20.15 10.0625 18.5241 7.21135 16.8881 5.02802C15.2521 2.84484 13.5827 1.29918 13.4345 1.16823C13.2108 0.963454 12.9164 0.85 12.6111 0.85C12.3058 0.85 12.0114 0.963435 11.7878 1.16818ZM6.27832 3.77122C6.8466 4.37903 7.36938 5.02559 7.84273 5.70588C6.55015 7.55129 5.36775 9.77202 5.1198 11.9623C4.75796 11.8156 4.42551 11.6002 4.14339 11.3248C3.57804 10.7728 3.26111 10.025 3.26111 9.24596C3.26111 8.33062 3.71487 7.27562 4.3428 6.26771C4.93272 5.32081 5.66474 4.43369 6.27832 3.77122ZM12.6187 3.71908C13.4157 4.54751 14.6573 5.92919 15.719 7.52064C16.8366 9.19591 17.7389 11.0802 17.7389 12.786C17.7389 14.1117 17.1995 15.3838 16.2383 16.3223C15.2769 17.2609 13.9722 17.7889 12.6111 17.7889C11.25 17.7889 9.94533 17.2609 8.98395 16.3223C8.02268 15.3838 7.48333 14.1117 7.48333 12.786C7.48333 11.0881 8.38549 9.20899 9.50319 7.53618C10.5716 5.93711 11.8222 4.54811 12.6187 3.71908Z" fill="#7CE7FF" stroke="#7CE7FF" stroke-width="0.3"/>
</svg>
