<svg xmlns="http://www.w3.org/2000/svg" width="20" height="20" viewBox="0 0 20 20" fill="none">
  <path d="M11.3726 7.54828V5.65139H15.688V2.6582H3.70917V5.65139H8.0367V7.54828C4.41122 7.72266 1.68945 8.45049 1.68945 9.32236C1.68945 10.1942 4.40819 10.9175 8.0367 11.0964V17.3573H11.3726V11.0964C14.9981 10.9236 17.7198 10.1958 17.7198 9.32236C17.7198 8.44897 15.0011 7.72266 11.3726 7.54828ZM9.70464 10.5293C5.77893 10.5293 2.5962 9.92282 2.5962 9.19196C2.5962 8.56269 4.91463 8.03502 8.03367 7.894V10.0365C8.57044 10.0608 9.12844 10.0744 9.7016 10.0744C10.2748 10.0744 10.8358 10.0608 11.3695 10.0365V7.894C14.4886 8.03502 16.807 8.56269 16.807 9.19196C16.8131 9.9304 13.6303 10.5293 9.70464 10.5293Z" fill="#00B9C4"/>
</svg>